<mxfile host="app.diagrams.net" agent="Mozilla/5.0 (Windows NT 10.0; Win64; x64) AppleWebKit/537.36 (KHTML, like Gecko) Chrome/133.0.0.0 Safari/537.36" version="26.1.0">
  <diagram id="EJQ9OiDduGw0p75EQbGA" name="Page-1">
    <mxGraphModel dx="880" dy="434" grid="1" gridSize="10" guides="1" tooltips="1" connect="1" arrows="1" fold="1" page="1" pageScale="1" pageWidth="827" pageHeight="1169" math="0" shadow="0">
      <root>
        <mxCell id="0" />
        <mxCell id="1" parent="0" />
        <mxCell id="DPtbiIHh7Wy7AEQEiO6D-2" value="&lt;b&gt;&lt;i&gt;&lt;font style=&quot;font-size: 10px;&quot;&gt;Musician&lt;/font&gt;&lt;/i&gt;&lt;/b&gt;" style="text;strokeColor=none;align=center;fillColor=none;html=1;verticalAlign=middle;whiteSpace=wrap;rounded=0;" vertex="1" parent="1">
          <mxGeometry x="72" y="60" width="60" height="30" as="geometry" />
        </mxCell>
        <mxCell id="DPtbiIHh7Wy7AEQEiO6D-3" value="" style="shape=table;startSize=0;container=1;collapsible=0;childLayout=tableLayout;" vertex="1" parent="1">
          <mxGeometry x="80" y="83" width="330" height="40" as="geometry" />
        </mxCell>
        <mxCell id="DPtbiIHh7Wy7AEQEiO6D-4" value="" style="shape=tableRow;horizontal=0;startSize=0;swimlaneHead=0;swimlaneBody=0;strokeColor=inherit;top=0;left=0;bottom=0;right=0;collapsible=0;dropTarget=0;fillColor=none;points=[[0,0.5],[1,0.5]];portConstraint=eastwest;" vertex="1" parent="DPtbiIHh7Wy7AEQEiO6D-3">
          <mxGeometry width="330" height="40" as="geometry" />
        </mxCell>
        <mxCell id="DPtbiIHh7Wy7AEQEiO6D-5" value="&lt;b&gt;&lt;i&gt;&lt;font style=&quot;font-size: 10px;&quot;&gt;ID&lt;/font&gt;&lt;/i&gt;&lt;/b&gt;" style="shape=partialRectangle;html=1;whiteSpace=wrap;connectable=0;strokeColor=inherit;overflow=hidden;fillColor=none;top=0;left=0;bottom=0;right=0;pointerEvents=1;" vertex="1" parent="DPtbiIHh7Wy7AEQEiO6D-4">
          <mxGeometry width="60" height="40" as="geometry">
            <mxRectangle width="60" height="40" as="alternateBounds" />
          </mxGeometry>
        </mxCell>
        <mxCell id="DPtbiIHh7Wy7AEQEiO6D-6" value="&lt;b&gt;&lt;i&gt;&lt;font style=&quot;font-size: 10px;&quot;&gt;Name&lt;/font&gt;&lt;/i&gt;&lt;/b&gt;" style="shape=partialRectangle;html=1;whiteSpace=wrap;connectable=0;strokeColor=inherit;overflow=hidden;fillColor=none;top=0;left=0;bottom=0;right=0;pointerEvents=1;" vertex="1" parent="DPtbiIHh7Wy7AEQEiO6D-4">
          <mxGeometry x="60" width="60" height="40" as="geometry">
            <mxRectangle width="60" height="40" as="alternateBounds" />
          </mxGeometry>
        </mxCell>
        <mxCell id="DPtbiIHh7Wy7AEQEiO6D-7" value="&lt;b&gt;&lt;i&gt;&lt;font style=&quot;font-size: 10px;&quot;&gt;Phone Number&lt;/font&gt;&lt;/i&gt;&lt;/b&gt;" style="shape=partialRectangle;html=1;whiteSpace=wrap;connectable=0;strokeColor=inherit;overflow=hidden;fillColor=none;top=0;left=0;bottom=0;right=0;pointerEvents=1;" vertex="1" parent="DPtbiIHh7Wy7AEQEiO6D-4">
          <mxGeometry x="120" width="90" height="40" as="geometry">
            <mxRectangle width="90" height="40" as="alternateBounds" />
          </mxGeometry>
        </mxCell>
        <mxCell id="DPtbiIHh7Wy7AEQEiO6D-8" value="&lt;b&gt;&lt;i&gt;&lt;font style=&quot;font-size: 10px;&quot;&gt;City&lt;/font&gt;&lt;/i&gt;&lt;/b&gt;" style="shape=partialRectangle;html=1;whiteSpace=wrap;connectable=0;strokeColor=inherit;overflow=hidden;fillColor=none;top=0;left=0;bottom=0;right=0;pointerEvents=1;" vertex="1" parent="DPtbiIHh7Wy7AEQEiO6D-4">
          <mxGeometry x="210" width="70" height="40" as="geometry">
            <mxRectangle width="70" height="40" as="alternateBounds" />
          </mxGeometry>
        </mxCell>
        <mxCell id="DPtbiIHh7Wy7AEQEiO6D-9" value="&lt;b&gt;&lt;i&gt;&lt;font style=&quot;font-size: 10px;&quot;&gt;Street&lt;/font&gt;&lt;/i&gt;&lt;/b&gt;" style="shape=partialRectangle;html=1;whiteSpace=wrap;connectable=0;strokeColor=inherit;overflow=hidden;fillColor=none;top=0;left=0;bottom=0;right=0;pointerEvents=1;" vertex="1" parent="DPtbiIHh7Wy7AEQEiO6D-4">
          <mxGeometry x="280" width="50" height="40" as="geometry">
            <mxRectangle width="50" height="40" as="alternateBounds" />
          </mxGeometry>
        </mxCell>
        <mxCell id="DPtbiIHh7Wy7AEQEiO6D-10" value="&lt;b&gt;&lt;i&gt;&lt;font style=&quot;font-size: 10px;&quot;&gt;Album&lt;/font&gt;&lt;/i&gt;&lt;/b&gt;" style="text;strokeColor=none;align=center;fillColor=none;html=1;verticalAlign=middle;whiteSpace=wrap;rounded=0;" vertex="1" parent="1">
          <mxGeometry x="67" y="137" width="60" height="30" as="geometry" />
        </mxCell>
        <mxCell id="DPtbiIHh7Wy7AEQEiO6D-23" value="" style="shape=table;startSize=0;container=1;collapsible=0;childLayout=tableLayout;" vertex="1" parent="1">
          <mxGeometry x="80" y="161" width="180" height="40" as="geometry" />
        </mxCell>
        <mxCell id="DPtbiIHh7Wy7AEQEiO6D-24" value="" style="shape=tableRow;horizontal=0;startSize=0;swimlaneHead=0;swimlaneBody=0;strokeColor=inherit;top=0;left=0;bottom=0;right=0;collapsible=0;dropTarget=0;fillColor=none;points=[[0,0.5],[1,0.5]];portConstraint=eastwest;" vertex="1" parent="DPtbiIHh7Wy7AEQEiO6D-23">
          <mxGeometry width="180" height="40" as="geometry" />
        </mxCell>
        <mxCell id="DPtbiIHh7Wy7AEQEiO6D-25" value="&lt;b&gt;&lt;i&gt;&lt;font style=&quot;font-size: 10px;&quot;&gt;ID&lt;/font&gt;&lt;/i&gt;&lt;/b&gt;" style="shape=partialRectangle;html=1;whiteSpace=wrap;connectable=0;strokeColor=inherit;overflow=hidden;fillColor=none;top=0;left=0;bottom=0;right=0;pointerEvents=1;" vertex="1" parent="DPtbiIHh7Wy7AEQEiO6D-24">
          <mxGeometry width="60" height="40" as="geometry">
            <mxRectangle width="60" height="40" as="alternateBounds" />
          </mxGeometry>
        </mxCell>
        <mxCell id="DPtbiIHh7Wy7AEQEiO6D-26" value="&lt;b&gt;&lt;i&gt;&lt;font style=&quot;font-size: 10px;&quot;&gt;Title&lt;/font&gt;&lt;/i&gt;&lt;/b&gt;" style="shape=partialRectangle;html=1;whiteSpace=wrap;connectable=0;strokeColor=inherit;overflow=hidden;fillColor=none;top=0;left=0;bottom=0;right=0;pointerEvents=1;" vertex="1" parent="DPtbiIHh7Wy7AEQEiO6D-24">
          <mxGeometry x="60" width="60" height="40" as="geometry">
            <mxRectangle width="60" height="40" as="alternateBounds" />
          </mxGeometry>
        </mxCell>
        <mxCell id="DPtbiIHh7Wy7AEQEiO6D-27" value="&lt;b&gt;&lt;i&gt;&lt;font style=&quot;font-size: 10px;&quot;&gt;Date&lt;/font&gt;&lt;/i&gt;&lt;/b&gt;" style="shape=partialRectangle;html=1;whiteSpace=wrap;connectable=0;strokeColor=inherit;overflow=hidden;fillColor=none;top=0;left=0;bottom=0;right=0;pointerEvents=1;" vertex="1" parent="DPtbiIHh7Wy7AEQEiO6D-24">
          <mxGeometry x="120" width="60" height="40" as="geometry">
            <mxRectangle width="60" height="40" as="alternateBounds" />
          </mxGeometry>
        </mxCell>
        <mxCell id="DPtbiIHh7Wy7AEQEiO6D-28" value="" style="endArrow=none;html=1;rounded=0;" edge="1" parent="1">
          <mxGeometry width="50" height="50" relative="1" as="geometry">
            <mxPoint x="90" y="116" as="sourcePoint" />
            <mxPoint x="130" y="116" as="targetPoint" />
          </mxGeometry>
        </mxCell>
        <mxCell id="DPtbiIHh7Wy7AEQEiO6D-29" value="" style="endArrow=none;html=1;rounded=0;" edge="1" parent="1">
          <mxGeometry width="50" height="50" relative="1" as="geometry">
            <mxPoint x="95" y="190" as="sourcePoint" />
            <mxPoint x="125" y="190" as="targetPoint" />
          </mxGeometry>
        </mxCell>
        <mxCell id="DPtbiIHh7Wy7AEQEiO6D-30" value="&lt;b&gt;&lt;i&gt;&lt;font style=&quot;font-size: 10px;&quot;&gt;Instrument&lt;/font&gt;&lt;/i&gt;&lt;/b&gt;" style="text;strokeColor=none;align=center;fillColor=none;html=1;verticalAlign=middle;whiteSpace=wrap;rounded=0;" vertex="1" parent="1">
          <mxGeometry x="77" y="284" width="60" height="30" as="geometry" />
        </mxCell>
        <mxCell id="DPtbiIHh7Wy7AEQEiO6D-31" value="" style="shape=table;startSize=0;container=1;collapsible=0;childLayout=tableLayout;" vertex="1" parent="1">
          <mxGeometry x="80" y="311" width="120" height="40" as="geometry" />
        </mxCell>
        <mxCell id="DPtbiIHh7Wy7AEQEiO6D-32" value="" style="shape=tableRow;horizontal=0;startSize=0;swimlaneHead=0;swimlaneBody=0;strokeColor=inherit;top=0;left=0;bottom=0;right=0;collapsible=0;dropTarget=0;fillColor=none;points=[[0,0.5],[1,0.5]];portConstraint=eastwest;" vertex="1" parent="DPtbiIHh7Wy7AEQEiO6D-31">
          <mxGeometry width="120" height="40" as="geometry" />
        </mxCell>
        <mxCell id="DPtbiIHh7Wy7AEQEiO6D-33" value="&lt;b&gt;&lt;i&gt;&lt;font style=&quot;font-size: 10px;&quot;&gt;Name&lt;/font&gt;&lt;/i&gt;&lt;/b&gt;" style="shape=partialRectangle;html=1;whiteSpace=wrap;connectable=0;strokeColor=inherit;overflow=hidden;fillColor=none;top=0;left=0;bottom=0;right=0;pointerEvents=1;" vertex="1" parent="DPtbiIHh7Wy7AEQEiO6D-32">
          <mxGeometry width="60" height="40" as="geometry">
            <mxRectangle width="60" height="40" as="alternateBounds" />
          </mxGeometry>
        </mxCell>
        <mxCell id="DPtbiIHh7Wy7AEQEiO6D-34" value="&lt;b&gt;&lt;i&gt;&lt;font style=&quot;font-size: 10px;&quot;&gt;Key&lt;/font&gt;&lt;/i&gt;&lt;/b&gt;" style="shape=partialRectangle;html=1;whiteSpace=wrap;connectable=0;strokeColor=inherit;overflow=hidden;fillColor=none;top=0;left=0;bottom=0;right=0;pointerEvents=1;" vertex="1" parent="DPtbiIHh7Wy7AEQEiO6D-32">
          <mxGeometry x="60" width="60" height="40" as="geometry">
            <mxRectangle width="60" height="40" as="alternateBounds" />
          </mxGeometry>
        </mxCell>
        <mxCell id="DPtbiIHh7Wy7AEQEiO6D-35" value="" style="endArrow=none;html=1;rounded=0;" edge="1" parent="1">
          <mxGeometry width="50" height="50" relative="1" as="geometry">
            <mxPoint x="96" y="341" as="sourcePoint" />
            <mxPoint x="126" y="341" as="targetPoint" />
          </mxGeometry>
        </mxCell>
        <mxCell id="DPtbiIHh7Wy7AEQEiO6D-36" value="&lt;b&gt;&lt;i&gt;&lt;font style=&quot;font-size: 10px;&quot;&gt;Song&lt;/font&gt;&lt;/i&gt;&lt;/b&gt;" style="text;strokeColor=none;align=center;fillColor=none;html=1;verticalAlign=middle;whiteSpace=wrap;rounded=0;" vertex="1" parent="1">
          <mxGeometry x="64" y="440" width="60" height="30" as="geometry" />
        </mxCell>
        <mxCell id="DPtbiIHh7Wy7AEQEiO6D-37" value="" style="shape=table;startSize=0;container=1;collapsible=0;childLayout=tableLayout;" vertex="1" parent="1">
          <mxGeometry x="80" y="465" width="120" height="40" as="geometry" />
        </mxCell>
        <mxCell id="DPtbiIHh7Wy7AEQEiO6D-38" value="" style="shape=tableRow;horizontal=0;startSize=0;swimlaneHead=0;swimlaneBody=0;strokeColor=inherit;top=0;left=0;bottom=0;right=0;collapsible=0;dropTarget=0;fillColor=none;points=[[0,0.5],[1,0.5]];portConstraint=eastwest;" vertex="1" parent="DPtbiIHh7Wy7AEQEiO6D-37">
          <mxGeometry width="120" height="40" as="geometry" />
        </mxCell>
        <mxCell id="DPtbiIHh7Wy7AEQEiO6D-39" value="&lt;b&gt;&lt;i&gt;&lt;font style=&quot;font-size: 10px;&quot;&gt;Title&lt;/font&gt;&lt;/i&gt;&lt;/b&gt;" style="shape=partialRectangle;html=1;whiteSpace=wrap;connectable=0;strokeColor=inherit;overflow=hidden;fillColor=none;top=0;left=0;bottom=0;right=0;pointerEvents=1;" vertex="1" parent="DPtbiIHh7Wy7AEQEiO6D-38">
          <mxGeometry width="60" height="40" as="geometry">
            <mxRectangle width="60" height="40" as="alternateBounds" />
          </mxGeometry>
        </mxCell>
        <mxCell id="DPtbiIHh7Wy7AEQEiO6D-40" value="&lt;b&gt;&lt;i&gt;&lt;font style=&quot;font-size: 10px;&quot;&gt;Author&lt;/font&gt;&lt;/i&gt;&lt;/b&gt;" style="shape=partialRectangle;html=1;whiteSpace=wrap;connectable=0;strokeColor=inherit;overflow=hidden;fillColor=none;top=0;left=0;bottom=0;right=0;pointerEvents=1;" vertex="1" parent="DPtbiIHh7Wy7AEQEiO6D-38">
          <mxGeometry x="60" width="60" height="40" as="geometry">
            <mxRectangle width="60" height="40" as="alternateBounds" />
          </mxGeometry>
        </mxCell>
        <mxCell id="DPtbiIHh7Wy7AEQEiO6D-41" value="" style="endArrow=none;html=1;rounded=0;" edge="1" parent="1">
          <mxGeometry width="50" height="50" relative="1" as="geometry">
            <mxPoint x="94" y="492" as="sourcePoint" />
            <mxPoint x="124" y="492" as="targetPoint" />
          </mxGeometry>
        </mxCell>
        <mxCell id="DPtbiIHh7Wy7AEQEiO6D-42" value="" style="shape=table;startSize=0;container=1;collapsible=0;childLayout=tableLayout;" vertex="1" parent="1">
          <mxGeometry x="260" y="161" width="60" height="40" as="geometry" />
        </mxCell>
        <mxCell id="DPtbiIHh7Wy7AEQEiO6D-43" value="" style="shape=tableRow;horizontal=0;startSize=0;swimlaneHead=0;swimlaneBody=0;strokeColor=inherit;top=0;left=0;bottom=0;right=0;collapsible=0;dropTarget=0;fillColor=none;points=[[0,0.5],[1,0.5]];portConstraint=eastwest;" vertex="1" parent="DPtbiIHh7Wy7AEQEiO6D-42">
          <mxGeometry width="60" height="40" as="geometry" />
        </mxCell>
        <mxCell id="DPtbiIHh7Wy7AEQEiO6D-44" value="&lt;b&gt;&lt;i&gt;&lt;font style=&quot;font-size: 10px;&quot;&gt;Musician ID&lt;/font&gt;&lt;/i&gt;&lt;/b&gt;" style="shape=partialRectangle;html=1;whiteSpace=wrap;connectable=0;strokeColor=inherit;overflow=hidden;fillColor=none;top=0;left=0;bottom=0;right=0;pointerEvents=1;" vertex="1" parent="DPtbiIHh7Wy7AEQEiO6D-43">
          <mxGeometry width="60" height="40" as="geometry">
            <mxRectangle width="60" height="40" as="alternateBounds" />
          </mxGeometry>
        </mxCell>
        <mxCell id="DPtbiIHh7Wy7AEQEiO6D-45" style="edgeStyle=orthogonalEdgeStyle;rounded=0;orthogonalLoop=1;jettySize=auto;html=1;exitX=0;exitY=0.5;exitDx=0;exitDy=0;entryX=0;entryY=0.35;entryDx=0;entryDy=0;entryPerimeter=0;" edge="1" parent="1" source="DPtbiIHh7Wy7AEQEiO6D-24" target="DPtbiIHh7Wy7AEQEiO6D-4">
          <mxGeometry relative="1" as="geometry">
            <Array as="points">
              <mxPoint x="10" y="181" />
              <mxPoint x="10" y="97" />
            </Array>
          </mxGeometry>
        </mxCell>
        <mxCell id="DPtbiIHh7Wy7AEQEiO6D-46" value="&lt;b&gt;&lt;i&gt;&lt;font style=&quot;font-size: 10px;&quot;&gt;Musician Instrument&lt;/font&gt;&lt;/i&gt;&lt;/b&gt;" style="text;strokeColor=none;align=center;fillColor=none;html=1;verticalAlign=middle;whiteSpace=wrap;rounded=0;" vertex="1" parent="1">
          <mxGeometry x="73" y="211" width="114" height="30" as="geometry" />
        </mxCell>
        <mxCell id="DPtbiIHh7Wy7AEQEiO6D-48" value="" style="shape=table;startSize=0;container=1;collapsible=0;childLayout=tableLayout;" vertex="1" parent="1">
          <mxGeometry x="80" y="237" width="150" height="40" as="geometry" />
        </mxCell>
        <mxCell id="DPtbiIHh7Wy7AEQEiO6D-49" value="" style="shape=tableRow;horizontal=0;startSize=0;swimlaneHead=0;swimlaneBody=0;strokeColor=inherit;top=0;left=0;bottom=0;right=0;collapsible=0;dropTarget=0;fillColor=none;points=[[0,0.5],[1,0.5]];portConstraint=eastwest;" vertex="1" parent="DPtbiIHh7Wy7AEQEiO6D-48">
          <mxGeometry width="150" height="40" as="geometry" />
        </mxCell>
        <mxCell id="DPtbiIHh7Wy7AEQEiO6D-50" value="&lt;b&gt;&lt;i&gt;&lt;font style=&quot;font-size: 10px;&quot;&gt;Musician ID&lt;/font&gt;&lt;/i&gt;&lt;/b&gt;" style="shape=partialRectangle;html=1;whiteSpace=wrap;connectable=0;strokeColor=inherit;overflow=hidden;fillColor=none;top=0;left=0;bottom=0;right=0;pointerEvents=1;" vertex="1" parent="DPtbiIHh7Wy7AEQEiO6D-49">
          <mxGeometry width="70" height="40" as="geometry">
            <mxRectangle width="70" height="40" as="alternateBounds" />
          </mxGeometry>
        </mxCell>
        <mxCell id="DPtbiIHh7Wy7AEQEiO6D-51" value="&lt;b&gt;&lt;i&gt;&lt;font style=&quot;font-size: 10px;&quot;&gt;Instrument ID&lt;/font&gt;&lt;/i&gt;&lt;/b&gt;" style="shape=partialRectangle;html=1;whiteSpace=wrap;connectable=0;strokeColor=inherit;overflow=hidden;fillColor=none;top=0;left=0;bottom=0;right=0;pointerEvents=1;" vertex="1" parent="DPtbiIHh7Wy7AEQEiO6D-49">
          <mxGeometry x="70" width="80" height="40" as="geometry">
            <mxRectangle width="80" height="40" as="alternateBounds" />
          </mxGeometry>
        </mxCell>
        <mxCell id="DPtbiIHh7Wy7AEQEiO6D-52" value="" style="endArrow=none;dashed=1;html=1;rounded=0;" edge="1" parent="1">
          <mxGeometry width="50" height="50" relative="1" as="geometry">
            <mxPoint x="89" y="266" as="sourcePoint" />
            <mxPoint x="139" y="266" as="targetPoint" />
          </mxGeometry>
        </mxCell>
        <mxCell id="DPtbiIHh7Wy7AEQEiO6D-53" value="" style="endArrow=none;dashed=1;html=1;rounded=0;" edge="1" parent="1">
          <mxGeometry width="50" height="50" relative="1" as="geometry">
            <mxPoint x="168" y="266" as="sourcePoint" />
            <mxPoint x="208" y="266" as="targetPoint" />
          </mxGeometry>
        </mxCell>
        <mxCell id="DPtbiIHh7Wy7AEQEiO6D-54" value="" style="endArrow=none;html=1;rounded=0;" edge="1" parent="1">
          <mxGeometry width="50" height="50" relative="1" as="geometry">
            <mxPoint x="97" y="273" as="sourcePoint" />
            <mxPoint x="187" y="273" as="targetPoint" />
          </mxGeometry>
        </mxCell>
        <mxCell id="DPtbiIHh7Wy7AEQEiO6D-55" style="edgeStyle=orthogonalEdgeStyle;rounded=0;orthogonalLoop=1;jettySize=auto;html=1;exitX=0;exitY=0.5;exitDx=0;exitDy=0;entryX=0;entryY=0.7;entryDx=0;entryDy=0;entryPerimeter=0;" edge="1" parent="1" source="DPtbiIHh7Wy7AEQEiO6D-49" target="DPtbiIHh7Wy7AEQEiO6D-4">
          <mxGeometry relative="1" as="geometry">
            <Array as="points">
              <mxPoint x="20" y="257" />
              <mxPoint x="20" y="111" />
            </Array>
          </mxGeometry>
        </mxCell>
        <mxCell id="DPtbiIHh7Wy7AEQEiO6D-56" style="edgeStyle=orthogonalEdgeStyle;rounded=0;orthogonalLoop=1;jettySize=auto;html=1;exitX=0;exitY=0.5;exitDx=0;exitDy=0;entryX=0;entryY=0.5;entryDx=0;entryDy=0;" edge="1" parent="1" source="DPtbiIHh7Wy7AEQEiO6D-49" target="DPtbiIHh7Wy7AEQEiO6D-32">
          <mxGeometry relative="1" as="geometry">
            <Array as="points">
              <mxPoint x="80" y="270" />
              <mxPoint x="40" y="270" />
              <mxPoint x="40" y="331" />
            </Array>
          </mxGeometry>
        </mxCell>
        <mxCell id="DPtbiIHh7Wy7AEQEiO6D-57" value="" style="shape=table;startSize=0;container=1;collapsible=0;childLayout=tableLayout;" vertex="1" parent="1">
          <mxGeometry x="200" y="465" width="60" height="40" as="geometry" />
        </mxCell>
        <mxCell id="DPtbiIHh7Wy7AEQEiO6D-58" value="" style="shape=tableRow;horizontal=0;startSize=0;swimlaneHead=0;swimlaneBody=0;strokeColor=inherit;top=0;left=0;bottom=0;right=0;collapsible=0;dropTarget=0;fillColor=none;points=[[0,0.5],[1,0.5]];portConstraint=eastwest;" vertex="1" parent="DPtbiIHh7Wy7AEQEiO6D-57">
          <mxGeometry width="60" height="40" as="geometry" />
        </mxCell>
        <mxCell id="DPtbiIHh7Wy7AEQEiO6D-59" value="&lt;b&gt;&lt;i&gt;&lt;font style=&quot;font-size: 10px;&quot;&gt;Album ID&lt;/font&gt;&lt;/i&gt;&lt;/b&gt;" style="shape=partialRectangle;html=1;whiteSpace=wrap;connectable=0;strokeColor=inherit;overflow=hidden;fillColor=none;top=0;left=0;bottom=0;right=0;pointerEvents=1;" vertex="1" parent="DPtbiIHh7Wy7AEQEiO6D-58">
          <mxGeometry width="60" height="40" as="geometry">
            <mxRectangle width="60" height="40" as="alternateBounds" />
          </mxGeometry>
        </mxCell>
        <mxCell id="DPtbiIHh7Wy7AEQEiO6D-60" value="" style="endArrow=none;dashed=1;html=1;rounded=0;" edge="1" parent="1">
          <mxGeometry width="50" height="50" relative="1" as="geometry">
            <mxPoint x="209" y="494" as="sourcePoint" />
            <mxPoint x="249" y="494" as="targetPoint" />
          </mxGeometry>
        </mxCell>
        <mxCell id="DPtbiIHh7Wy7AEQEiO6D-61" style="edgeStyle=orthogonalEdgeStyle;rounded=0;orthogonalLoop=1;jettySize=auto;html=1;exitX=0;exitY=0.5;exitDx=0;exitDy=0;entryX=0;entryY=0.725;entryDx=0;entryDy=0;entryPerimeter=0;" edge="1" parent="1" source="DPtbiIHh7Wy7AEQEiO6D-38" target="DPtbiIHh7Wy7AEQEiO6D-24">
          <mxGeometry relative="1" as="geometry">
            <Array as="points">
              <mxPoint x="10" y="485" />
              <mxPoint x="10" y="190" />
            </Array>
          </mxGeometry>
        </mxCell>
        <mxCell id="DPtbiIHh7Wy7AEQEiO6D-62" value="&lt;b&gt;&lt;i&gt;&lt;font style=&quot;font-size: 10px;&quot;&gt;Song Musician&lt;/font&gt;&lt;/i&gt;&lt;/b&gt;" style="text;strokeColor=none;align=center;fillColor=none;html=1;verticalAlign=middle;whiteSpace=wrap;rounded=0;" vertex="1" parent="1">
          <mxGeometry x="67" y="361" width="96" height="30" as="geometry" />
        </mxCell>
        <mxCell id="DPtbiIHh7Wy7AEQEiO6D-63" value="" style="shape=table;startSize=0;container=1;collapsible=0;childLayout=tableLayout;" vertex="1" parent="1">
          <mxGeometry x="80" y="390" width="140" height="40" as="geometry" />
        </mxCell>
        <mxCell id="DPtbiIHh7Wy7AEQEiO6D-64" value="" style="shape=tableRow;horizontal=0;startSize=0;swimlaneHead=0;swimlaneBody=0;strokeColor=inherit;top=0;left=0;bottom=0;right=0;collapsible=0;dropTarget=0;fillColor=none;points=[[0,0.5],[1,0.5]];portConstraint=eastwest;" vertex="1" parent="DPtbiIHh7Wy7AEQEiO6D-63">
          <mxGeometry width="140" height="40" as="geometry" />
        </mxCell>
        <mxCell id="DPtbiIHh7Wy7AEQEiO6D-65" value="&lt;b&gt;&lt;i&gt;&lt;font style=&quot;font-size: 10px;&quot;&gt;Song ID&lt;/font&gt;&lt;/i&gt;&lt;/b&gt;" style="shape=partialRectangle;html=1;whiteSpace=wrap;connectable=0;strokeColor=inherit;overflow=hidden;fillColor=none;top=0;left=0;bottom=0;right=0;pointerEvents=1;" vertex="1" parent="DPtbiIHh7Wy7AEQEiO6D-64">
          <mxGeometry width="60" height="40" as="geometry">
            <mxRectangle width="60" height="40" as="alternateBounds" />
          </mxGeometry>
        </mxCell>
        <mxCell id="DPtbiIHh7Wy7AEQEiO6D-66" value="&lt;b&gt;&lt;i&gt;&lt;font style=&quot;font-size: 10px;&quot;&gt;Musician ID&lt;/font&gt;&lt;/i&gt;&lt;/b&gt;" style="shape=partialRectangle;html=1;whiteSpace=wrap;connectable=0;strokeColor=inherit;overflow=hidden;fillColor=none;top=0;left=0;bottom=0;right=0;pointerEvents=1;" vertex="1" parent="DPtbiIHh7Wy7AEQEiO6D-64">
          <mxGeometry x="60" width="80" height="40" as="geometry">
            <mxRectangle width="80" height="40" as="alternateBounds" />
          </mxGeometry>
        </mxCell>
        <mxCell id="DPtbiIHh7Wy7AEQEiO6D-70" value="" style="endArrow=none;dashed=1;html=1;rounded=0;" edge="1" parent="1">
          <mxGeometry width="50" height="50" relative="1" as="geometry">
            <mxPoint x="155" y="420" as="sourcePoint" />
            <mxPoint x="205" y="420" as="targetPoint" />
          </mxGeometry>
        </mxCell>
        <mxCell id="DPtbiIHh7Wy7AEQEiO6D-71" value="" style="endArrow=none;dashed=1;html=1;rounded=0;" edge="1" parent="1">
          <mxGeometry width="50" height="50" relative="1" as="geometry">
            <mxPoint x="94" y="419" as="sourcePoint" />
            <mxPoint x="124" y="419" as="targetPoint" />
          </mxGeometry>
        </mxCell>
        <mxCell id="DPtbiIHh7Wy7AEQEiO6D-72" value="" style="endArrow=none;html=1;rounded=0;" edge="1" parent="1">
          <mxGeometry width="50" height="50" relative="1" as="geometry">
            <mxPoint x="107" y="426" as="sourcePoint" />
            <mxPoint x="187" y="426" as="targetPoint" />
          </mxGeometry>
        </mxCell>
        <mxCell id="DPtbiIHh7Wy7AEQEiO6D-73" style="edgeStyle=orthogonalEdgeStyle;rounded=0;orthogonalLoop=1;jettySize=auto;html=1;exitX=1;exitY=0.5;exitDx=0;exitDy=0;entryX=1;entryY=0.5;entryDx=0;entryDy=0;" edge="1" parent="1" source="DPtbiIHh7Wy7AEQEiO6D-64" target="DPtbiIHh7Wy7AEQEiO6D-4">
          <mxGeometry relative="1" as="geometry" />
        </mxCell>
        <mxCell id="DPtbiIHh7Wy7AEQEiO6D-74" style="edgeStyle=orthogonalEdgeStyle;rounded=0;orthogonalLoop=1;jettySize=auto;html=1;exitX=1;exitY=0.5;exitDx=0;exitDy=0;entryX=1.05;entryY=0.675;entryDx=0;entryDy=0;entryPerimeter=0;" edge="1" parent="1" source="DPtbiIHh7Wy7AEQEiO6D-64" target="DPtbiIHh7Wy7AEQEiO6D-58">
          <mxGeometry relative="1" as="geometry">
            <Array as="points">
              <mxPoint x="220" y="420" />
              <mxPoint x="330" y="420" />
              <mxPoint x="330" y="492" />
            </Array>
          </mxGeometry>
        </mxCell>
      </root>
    </mxGraphModel>
  </diagram>
</mxfile>
